<svg xmlns="http://www.w3.org/2000/svg" xmlns:xlink="http://www.w3.org/1999/xlink" width="500" zoomAndPan="magnify" viewBox="0 0 375 374.999991" height="500" preserveAspectRatio="xMidYMid meet" version="1.0"><defs><g/><clipPath id="e7e26cc6b5"><path d="M 77.605469 51.464844 L 259.105469 51.464844 L 259.105469 195.464844 L 77.605469 195.464844 Z M 77.605469 51.464844 " clip-rule="nonzero"/></clipPath></defs><g clip-path="url(#e7e26cc6b5)"><path fill="#ff0056" d="M 112.988281 92.707031 C 108.480469 93.042969 97.484375 94.558594 89.023438 101.359375 C 82.6875 106.453125 77.644531 114.386719 77.605469 126.847656 C 77.566406 138.925781 82.957031 146.515625 89.660156 151.324219 C 97.25 156.765625 106.714844 158.40625 111.667969 158.902344 C 112.648438 162.238281 113.324219 166.441406 113.601562 171.007812 C 113.898438 175.976562 113.71875 181.363281 112.863281 186.566406 L 111.441406 195.210938 L 119.414062 191.585938 C 128.09375 187.59375 144.300781 184.285156 161.316406 184.480469 C 165.589844 184.53125 169.90625 184.835938 174.203125 185.277344 C 177.078125 185.570312 179.917969 185.886719 182.75 186.324219 C 186.394531 186.890625 189.90625 187.550781 193.410156 188.480469 C 197.109375 189.464844 200.582031 190.480469 204.019531 192.054688 C 201.375 189.390625 198.625 187.0625 195.4375 185.003906 C 192.285156 182.96875 188.925781 181.367188 185.375 179.976562 C 182.578125 178.875 179.707031 178.015625 176.757812 177.324219 C 174.808594 176.871094 172.835938 176.542969 170.855469 176.277344 C 163.328125 175.261719 155.707031 175.253906 148.527344 175.746094 C 138.832031 176.414062 129.917969 178.175781 122.953125 180.320312 C 123.15625 176.957031 123.144531 173.621094 122.949219 170.4375 C 122.515625 163.34375 121.164062 156.996094 119.367188 152.664062 L 118.171875 149.78125 L 115.050781 149.78125 C 115.050781 149.78125 103.554688 149.839844 95.035156 143.792969 C 90.378906 140.488281 86.730469 135.207031 86.707031 126.847656 C 86.675781 117.847656 90.105469 112.023438 94.65625 108.308594 C 100.949219 103.171875 109.089844 101.820312 112.90625 101.46875 C 113.011719 102.726562 113.167969 103.976562 113.378906 105.203125 C 115.066406 115.023438 119.796875 123.378906 126.601562 127.515625 C 121.078125 122.523438 118.320312 114.078125 118.230469 104.765625 C 118.160156 97.15625 120.074219 89.082031 124.179688 81.894531 C 126.402344 78.003906 129.332031 74.46875 132.941406 71.382812 C 139.949219 65.402344 149.753906 61.429688 163.03125 61.582031 C 177.414062 61.675781 187.027344 66.03125 193.398438 71.972656 C 205.9375 83.667969 205.9375 101.058594 205.9375 101.058594 L 205.9375 106.820312 L 211.65625 106.136719 C 211.65625 106.136719 226.671875 104.234375 238.027344 110.457031 C 244.363281 113.925781 249.355469 120.179688 249.402344 131.148438 C 249.484375 141.636719 245.734375 147.695312 240.554688 151.023438 C 236.292969 153.761719 231.269531 154.703125 227.015625 155.105469 C 222.957031 155.492188 219.539062 155.367188 217.957031 155.273438 C 218.1875 154.945312 218.410156 154.613281 218.621094 154.273438 C 219.75 152.445312 220.632812 150.472656 221.207031 148.363281 C 221.625 146.828125 221.9375 145.289062 222.011719 143.652344 C 222.179688 140.199219 221.664062 136.792969 220.347656 133.140625 C 220.222656 135.1875 219.859375 136.992188 219.398438 138.839844 C 218.703125 141.625 217.558594 143.992188 216.21875 146.316406 C 215.347656 147.832031 214.328125 149.191406 213.269531 150.539062 C 212.570312 151.433594 211.828125 152.285156 211.09375 153.144531 C 209.191406 155.363281 207.171875 157.429688 204.773438 159.132812 C 200.929688 161.871094 196.75 163.941406 191.996094 164.722656 C 197.132812 165.566406 202.21875 165.089844 207.007812 163.335938 C 208.703125 162.71875 210.292969 161.902344 211.800781 160.945312 C 211.109375 164.074219 210.757812 167.292969 210.816406 170.644531 C 210.917969 176.738281 212.097656 182.914062 213.535156 189.339844 C 213.894531 182.964844 214.597656 176.9375 215.925781 171.179688 C 216.554688 168.445312 217.355469 165.851562 218.421875 163.394531 C 220.601562 163.753906 223.839844 164.125 227.558594 164.023438 C 233.199219 163.871094 239.835938 162.476562 245.542969 158.984375 C 253.03125 154.402344 259.117188 146.105469 259.238281 131.148438 C 259.292969 119.050781 254.839844 111.042969 248.726562 105.6875 C 238.722656 96.921875 223.625 95.710938 215.710938 95.75 C 214.683594 88.34375 211.332031 74.675781 200.363281 64.488281 C 192.511719 57.191406 180.769531 51.550781 163.074219 51.507812 C 149.550781 51.519531 138.949219 55.023438 131.027344 60.636719 C 128.449219 62.460938 126.140625 64.492188 124.140625 66.726562 C 121.027344 70.207031 118.554688 74.070312 116.773438 78.175781 C 114.742188 82.863281 113.488281 87.800781 112.988281 92.707031 Z M 112.988281 92.707031 " fill-opacity="1" fill-rule="evenodd"/></g><g fill="#ff0056" fill-opacity="1"><g transform="translate(63.308726, 243.569279)"><g><path d="M 27.03125 -46.890625 C 32.71875 -46.890625 37.0625 -45.878906 40.0625 -43.859375 C 43.0625 -41.847656 44.5625 -38.957031 44.5625 -35.1875 C 44.5625 -33.351562 44.347656 -31.78125 43.921875 -30.46875 C 43.492188 -29.164062 42.898438 -28.054688 42.140625 -27.140625 C 41.378906 -26.234375 40.46875 -25.484375 39.40625 -24.890625 C 38.351562 -24.296875 37.207031 -23.785156 35.96875 -23.359375 C 36.832031 -23.128906 37.695312 -22.515625 38.5625 -21.515625 C 39.425781 -20.515625 40.304688 -19.273438 41.203125 -17.796875 C 42.109375 -16.328125 43.019531 -14.691406 43.9375 -12.890625 C 44.863281 -11.085938 45.789062 -9.265625 46.71875 -7.421875 C 47.644531 -5.585938 48.582031 -3.800781 49.53125 -2.0625 C 50.488281 -0.332031 51.441406 1.207031 52.390625 2.5625 C 53.347656 3.925781 54.3125 5.015625 55.28125 5.828125 C 56.25 6.648438 57.21875 7.0625 58.1875 7.0625 C 58.601562 7.0625 59.015625 6.976562 59.421875 6.8125 C 59.828125 6.644531 60.144531 6.472656 60.375 6.296875 L 61.03125 7.53125 C 60.613281 7.757812 60.101562 8.015625 59.5 8.296875 C 58.894531 8.578125 58.179688 8.84375 57.359375 9.09375 C 56.546875 9.34375 55.628906 9.554688 54.609375 9.734375 C 53.597656 9.910156 52.476562 10 51.25 10 C 49.21875 10 47.382812 9.441406 45.75 8.328125 C 44.125 7.210938 42.726562 5.640625 41.5625 3.609375 C 40.363281 1.515625 39.1875 -0.679688 38.03125 -2.984375 C 36.882812 -5.285156 35.742188 -7.582031 34.609375 -9.875 C 33.472656 -12.175781 32.332031 -14.425781 31.1875 -16.625 C 30.050781 -18.820312 28.90625 -20.878906 27.75 -22.796875 L 28.015625 -24.09375 C 29.242188 -23.78125 30.3125 -23.851562 31.21875 -24.3125 C 32.132812 -24.769531 32.882812 -25.515625 33.46875 -26.546875 C 34.050781 -27.585938 34.484375 -28.859375 34.765625 -30.359375 C 35.046875 -31.867188 35.1875 -33.5 35.1875 -35.25 C 35.1875 -36.507812 35.050781 -37.6875 34.78125 -38.78125 C 34.507812 -39.875 34.128906 -40.832031 33.640625 -41.65625 C 33.148438 -42.488281 32.554688 -43.140625 31.859375 -43.609375 C 31.171875 -44.078125 30.398438 -44.3125 29.546875 -44.3125 C 28.878906 -44.3125 28.328125 -44.210938 27.890625 -44.015625 C 27.460938 -43.816406 27.125 -43.566406 26.875 -43.265625 C 26.625 -42.960938 26.453125 -42.640625 26.359375 -42.296875 C 26.265625 -41.953125 26.21875 -41.625 26.21875 -41.3125 L 26.21875 -4.109375 C 26.21875 -2.492188 25.796875 -1.320312 24.953125 -0.59375 C 24.109375 0.132812 22.816406 0.5 21.078125 0.5 C 19.316406 0.5 18.019531 0.132812 17.1875 -0.59375 C 16.351562 -1.320312 15.9375 -2.492188 15.9375 -4.109375 L 15.9375 -41.625 C 15.9375 -42.769531 15.140625 -43.34375 13.546875 -43.34375 C 12.398438 -43.34375 11.234375 -43.171875 10.046875 -42.828125 C 8.867188 -42.484375 7.800781 -42.007812 6.84375 -41.40625 C 5.894531 -40.8125 5.117188 -40.101562 4.515625 -39.28125 C 3.910156 -38.457031 3.609375 -37.566406 3.609375 -36.609375 C 3.609375 -35.929688 3.695312 -35.394531 3.875 -35 C 4.050781 -34.601562 4.253906 -34.304688 4.484375 -34.109375 C 4.710938 -33.910156 4.945312 -33.785156 5.1875 -33.734375 C 5.425781 -33.679688 5.597656 -33.65625 5.703125 -33.65625 C 6.234375 -33.65625 6.664062 -33.742188 7 -33.921875 C 7.332031 -34.097656 7.632812 -34.285156 7.90625 -34.484375 C 8.175781 -34.679688 8.429688 -34.867188 8.671875 -35.046875 C 8.910156 -35.222656 9.1875 -35.3125 9.5 -35.3125 C 9.75 -35.3125 10.015625 -35.253906 10.296875 -35.140625 C 10.585938 -35.023438 10.851562 -34.84375 11.09375 -34.59375 C 11.332031 -34.34375 11.535156 -34.015625 11.703125 -33.609375 C 11.867188 -33.203125 11.953125 -32.707031 11.953125 -32.125 C 11.953125 -31.28125 11.789062 -30.554688 11.46875 -29.953125 C 11.144531 -29.347656 10.722656 -28.835938 10.203125 -28.421875 C 9.691406 -28.015625 9.109375 -27.710938 8.453125 -27.515625 C 7.796875 -27.316406 7.144531 -27.21875 6.5 -27.21875 C 5.488281 -27.21875 4.582031 -27.390625 3.78125 -27.734375 C 2.976562 -28.085938 2.289062 -28.566406 1.71875 -29.171875 C 1.15625 -29.773438 0.726562 -30.484375 0.4375 -31.296875 C 0.144531 -32.117188 0 -32.988281 0 -33.90625 C 0 -35.644531 0.320312 -37.175781 0.96875 -38.5 C 1.613281 -39.820312 2.523438 -40.960938 3.703125 -41.921875 C 4.890625 -42.890625 6.304688 -43.691406 7.953125 -44.328125 C 9.609375 -44.972656 11.441406 -45.484375 13.453125 -45.859375 C 15.460938 -46.234375 17.609375 -46.5 19.890625 -46.65625 C 22.179688 -46.8125 24.5625 -46.890625 27.03125 -46.890625 Z M 27.03125 -46.890625 "/></g></g></g><g fill="#ff0056" fill-opacity="1"><g transform="translate(112.43654, 243.569279)"><g><path d="M 12.015625 -14.390625 C 12.015625 -13.722656 12.113281 -13 12.3125 -12.21875 C 12.507812 -11.4375 12.796875 -10.644531 13.171875 -9.84375 C 13.546875 -9.050781 14.007812 -8.296875 14.5625 -7.578125 C 15.125 -6.859375 15.765625 -6.210938 16.484375 -5.640625 C 17.203125 -5.078125 18 -4.628906 18.875 -4.296875 C 19.757812 -3.960938 20.722656 -3.796875 21.765625 -3.796875 C 22.492188 -3.796875 23.171875 -3.878906 23.796875 -4.046875 C 24.429688 -4.210938 25.019531 -4.441406 25.5625 -4.734375 C 26.101562 -5.023438 26.625 -5.363281 27.125 -5.75 C 27.632812 -6.132812 28.140625 -6.550781 28.640625 -7 L 29.421875 -6.234375 C 28.941406 -5.585938 28.320312 -4.878906 27.5625 -4.109375 C 26.8125 -3.335938 25.898438 -2.609375 24.828125 -1.921875 C 23.765625 -1.242188 22.519531 -0.679688 21.09375 -0.234375 C 19.675781 0.210938 18.0625 0.4375 16.25 0.4375 C 14.425781 0.4375 12.648438 0.109375 10.921875 -0.546875 C 9.203125 -1.203125 7.671875 -2.1875 6.328125 -3.5 C 4.992188 -4.820312 3.921875 -6.46875 3.109375 -8.4375 C 2.304688 -10.40625 1.90625 -12.707031 1.90625 -15.34375 C 1.90625 -17.238281 2.144531 -18.976562 2.625 -20.5625 C 3.113281 -22.15625 3.769531 -23.585938 4.59375 -24.859375 C 5.414062 -26.140625 6.375 -27.257812 7.46875 -28.21875 C 8.570312 -29.1875 9.726562 -29.988281 10.9375 -30.625 C 12.15625 -31.257812 13.394531 -31.738281 14.65625 -32.0625 C 15.925781 -32.394531 17.144531 -32.5625 18.3125 -32.5625 C 19.863281 -32.5625 21.210938 -32.390625 22.359375 -32.046875 C 23.515625 -31.710938 24.472656 -31.265625 25.234375 -30.703125 C 25.992188 -30.140625 26.5625 -29.484375 26.9375 -28.734375 C 27.3125 -27.992188 27.5 -27.21875 27.5 -26.40625 C 27.5 -25.425781 27.21875 -24.539062 26.65625 -23.75 C 26.09375 -22.96875 25.34375 -22.285156 24.40625 -21.703125 Z M 18.3125 -20.765625 C 18.582031 -20.929688 18.804688 -21.09375 18.984375 -21.25 C 19.160156 -21.40625 19.300781 -21.59375 19.40625 -21.8125 C 19.519531 -22.03125 19.601562 -22.300781 19.65625 -22.625 C 19.707031 -22.945312 19.734375 -23.351562 19.734375 -23.84375 C 19.734375 -24.363281 19.675781 -24.941406 19.5625 -25.578125 C 19.445312 -26.210938 19.25 -26.8125 18.96875 -27.375 C 18.695312 -27.945312 18.351562 -28.421875 17.9375 -28.796875 C 17.519531 -29.171875 17.019531 -29.359375 16.4375 -29.359375 C 15.6875 -29.359375 15.039062 -29.132812 14.5 -28.6875 C 13.96875 -28.238281 13.53125 -27.65625 13.1875 -26.9375 C 12.84375 -26.226562 12.570312 -25.414062 12.375 -24.5 C 12.175781 -23.59375 12.023438 -22.679688 11.921875 -21.765625 C 11.816406 -20.847656 11.753906 -19.960938 11.734375 -19.109375 C 11.710938 -18.265625 11.703125 -17.550781 11.703125 -16.96875 Z M 18.3125 -20.765625 "/></g></g></g><g fill="#ff0056" fill-opacity="1"><g transform="translate(140.555912, 243.569279)"><g><path d="M 23.84375 -21.703125 C 23.1875 -21.703125 22.640625 -21.800781 22.203125 -22 C 21.765625 -22.195312 21.410156 -22.460938 21.140625 -22.796875 C 20.867188 -23.128906 20.671875 -23.5 20.546875 -23.90625 C 20.421875 -24.320312 20.359375 -24.75 20.359375 -25.1875 C 20.359375 -25.75 20.394531 -26.289062 20.46875 -26.8125 C 20.539062 -27.332031 20.550781 -27.800781 20.5 -28.21875 C 20.445312 -28.644531 20.285156 -28.984375 20.015625 -29.234375 C 19.742188 -29.484375 19.257812 -29.609375 18.5625 -29.609375 C 17.832031 -29.609375 17.0625 -29.398438 16.25 -28.984375 C 15.4375 -28.566406 14.691406 -27.90625 14.015625 -27 C 13.347656 -26.101562 12.796875 -24.945312 12.359375 -23.53125 C 11.921875 -22.125 11.703125 -20.425781 11.703125 -18.4375 C 11.703125 -16.25 11.90625 -14.25 12.3125 -12.4375 C 12.71875 -10.625 13.328125 -9.078125 14.140625 -7.796875 C 14.960938 -6.523438 15.976562 -5.539062 17.1875 -4.84375 C 18.394531 -4.144531 19.816406 -3.796875 21.453125 -3.796875 C 22.179688 -3.796875 22.875 -3.878906 23.53125 -4.046875 C 24.195312 -4.210938 24.820312 -4.441406 25.40625 -4.734375 C 25.988281 -5.023438 26.546875 -5.363281 27.078125 -5.75 C 27.617188 -6.132812 28.140625 -6.550781 28.640625 -7 L 29.421875 -6.234375 C 28.941406 -5.585938 28.320312 -4.878906 27.5625 -4.109375 C 26.8125 -3.335938 25.898438 -2.609375 24.828125 -1.921875 C 23.765625 -1.242188 22.519531 -0.679688 21.09375 -0.234375 C 19.675781 0.210938 18.0625 0.4375 16.25 0.4375 C 14.425781 0.4375 12.648438 0.0859375 10.921875 -0.609375 C 9.203125 -1.304688 7.671875 -2.320312 6.328125 -3.65625 C 4.992188 -5 3.921875 -6.628906 3.109375 -8.546875 C 2.304688 -10.460938 1.90625 -12.644531 1.90625 -15.09375 C 1.90625 -16.988281 2.144531 -18.734375 2.625 -20.328125 C 3.113281 -21.929688 3.769531 -23.378906 4.59375 -24.671875 C 5.414062 -25.972656 6.375 -27.113281 7.46875 -28.09375 C 8.570312 -29.082031 9.726562 -29.90625 10.9375 -30.5625 C 12.15625 -31.21875 13.394531 -31.710938 14.65625 -32.046875 C 15.925781 -32.390625 17.144531 -32.5625 18.3125 -32.5625 C 19.863281 -32.5625 21.210938 -32.378906 22.359375 -32.015625 C 23.515625 -31.660156 24.472656 -31.191406 25.234375 -30.609375 C 25.992188 -30.023438 26.5625 -29.347656 26.9375 -28.578125 C 27.3125 -27.816406 27.5 -27.03125 27.5 -26.21875 C 27.5 -25.613281 27.421875 -25.035156 27.265625 -24.484375 C 27.109375 -23.929688 26.878906 -23.445312 26.578125 -23.03125 C 26.273438 -22.625 25.894531 -22.300781 25.4375 -22.0625 C 24.976562 -21.820312 24.445312 -21.703125 23.84375 -21.703125 Z M 23.84375 -21.703125 "/></g></g></g><g fill="#ff0056" fill-opacity="1"><g transform="translate(168.675283, 243.569279)"><g><path d="M 12.015625 -14.390625 C 12.015625 -13.722656 12.113281 -13 12.3125 -12.21875 C 12.507812 -11.4375 12.796875 -10.644531 13.171875 -9.84375 C 13.546875 -9.050781 14.007812 -8.296875 14.5625 -7.578125 C 15.125 -6.859375 15.765625 -6.210938 16.484375 -5.640625 C 17.203125 -5.078125 18 -4.628906 18.875 -4.296875 C 19.757812 -3.960938 20.722656 -3.796875 21.765625 -3.796875 C 22.492188 -3.796875 23.171875 -3.878906 23.796875 -4.046875 C 24.429688 -4.210938 25.019531 -4.441406 25.5625 -4.734375 C 26.101562 -5.023438 26.625 -5.363281 27.125 -5.75 C 27.632812 -6.132812 28.140625 -6.550781 28.640625 -7 L 29.421875 -6.234375 C 28.941406 -5.585938 28.320312 -4.878906 27.5625 -4.109375 C 26.8125 -3.335938 25.898438 -2.609375 24.828125 -1.921875 C 23.765625 -1.242188 22.519531 -0.679688 21.09375 -0.234375 C 19.675781 0.210938 18.0625 0.4375 16.25 0.4375 C 14.425781 0.4375 12.648438 0.109375 10.921875 -0.546875 C 9.203125 -1.203125 7.671875 -2.1875 6.328125 -3.5 C 4.992188 -4.820312 3.921875 -6.46875 3.109375 -8.4375 C 2.304688 -10.40625 1.90625 -12.707031 1.90625 -15.34375 C 1.90625 -17.238281 2.144531 -18.976562 2.625 -20.5625 C 3.113281 -22.15625 3.769531 -23.585938 4.59375 -24.859375 C 5.414062 -26.140625 6.375 -27.257812 7.46875 -28.21875 C 8.570312 -29.1875 9.726562 -29.988281 10.9375 -30.625 C 12.15625 -31.257812 13.394531 -31.738281 14.65625 -32.0625 C 15.925781 -32.394531 17.144531 -32.5625 18.3125 -32.5625 C 19.863281 -32.5625 21.210938 -32.390625 22.359375 -32.046875 C 23.515625 -31.710938 24.472656 -31.265625 25.234375 -30.703125 C 25.992188 -30.140625 26.5625 -29.484375 26.9375 -28.734375 C 27.3125 -27.992188 27.5 -27.21875 27.5 -26.40625 C 27.5 -25.425781 27.21875 -24.539062 26.65625 -23.75 C 26.09375 -22.96875 25.34375 -22.285156 24.40625 -21.703125 Z M 18.3125 -20.765625 C 18.582031 -20.929688 18.804688 -21.09375 18.984375 -21.25 C 19.160156 -21.40625 19.300781 -21.59375 19.40625 -21.8125 C 19.519531 -22.03125 19.601562 -22.300781 19.65625 -22.625 C 19.707031 -22.945312 19.734375 -23.351562 19.734375 -23.84375 C 19.734375 -24.363281 19.675781 -24.941406 19.5625 -25.578125 C 19.445312 -26.210938 19.25 -26.8125 18.96875 -27.375 C 18.695312 -27.945312 18.351562 -28.421875 17.9375 -28.796875 C 17.519531 -29.171875 17.019531 -29.359375 16.4375 -29.359375 C 15.6875 -29.359375 15.039062 -29.132812 14.5 -28.6875 C 13.96875 -28.238281 13.53125 -27.65625 13.1875 -26.9375 C 12.84375 -26.226562 12.570312 -25.414062 12.375 -24.5 C 12.175781 -23.59375 12.023438 -22.679688 11.921875 -21.765625 C 11.816406 -20.847656 11.753906 -19.960938 11.734375 -19.109375 C 11.710938 -18.265625 11.703125 -17.550781 11.703125 -16.96875 Z M 18.3125 -20.765625 "/></g></g></g><g fill="#ff0056" fill-opacity="1"><g transform="translate(196.794654, 243.569279)"><g><path d="M 4.296875 -27.03125 C 4.296875 -27.644531 4.15625 -28.175781 3.875 -28.625 C 3.59375 -29.070312 3.117188 -29.296875 2.453125 -29.296875 C 2.085938 -29.296875 1.78125 -29.234375 1.53125 -29.109375 C 1.28125 -28.984375 1.007812 -28.804688 0.71875 -28.578125 L 0.0625 -29.359375 C 0.539062 -29.753906 1.078125 -30.144531 1.671875 -30.53125 C 2.273438 -30.914062 2.921875 -31.253906 3.609375 -31.546875 C 4.296875 -31.835938 5.035156 -32.078125 5.828125 -32.265625 C 6.628906 -32.460938 7.46875 -32.5625 8.34375 -32.5625 C 9.28125 -32.5625 10.082031 -32.410156 10.75 -32.109375 C 11.425781 -31.816406 11.988281 -31.46875 12.4375 -31.0625 C 12.882812 -30.65625 13.222656 -30.226562 13.453125 -29.78125 C 13.679688 -29.332031 13.816406 -28.953125 13.859375 -28.640625 C 14.273438 -29.222656 14.769531 -29.753906 15.34375 -30.234375 C 15.925781 -30.710938 16.554688 -31.125 17.234375 -31.46875 C 17.910156 -31.8125 18.628906 -32.078125 19.390625 -32.265625 C 20.160156 -32.460938 20.953125 -32.5625 21.765625 -32.5625 C 23.441406 -32.5625 24.957031 -32.210938 26.3125 -31.515625 C 27.675781 -30.828125 28.84375 -29.800781 29.8125 -28.4375 C 30.78125 -27.082031 31.523438 -25.398438 32.046875 -23.390625 C 32.578125 -21.390625 32.84375 -19.070312 32.84375 -16.4375 C 32.84375 -13.382812 32.519531 -10.785156 31.875 -8.640625 C 31.238281 -6.492188 30.398438 -4.738281 29.359375 -3.375 C 28.328125 -2.019531 27.148438 -1.035156 25.828125 -0.421875 C 24.503906 0.191406 23.148438 0.5 21.765625 0.5 C 20.617188 0.5 19.609375 0.382812 18.734375 0.15625 C 17.867188 -0.0703125 17.125 -0.351562 16.5 -0.6875 C 15.875 -1.019531 15.347656 -1.359375 14.921875 -1.703125 C 14.503906 -2.054688 14.171875 -2.347656 13.921875 -2.578125 L 13.921875 12.734375 C 13.921875 13.003906 13.878906 13.328125 13.796875 13.703125 C 13.710938 14.078125 13.507812 14.4375 13.1875 14.78125 C 12.863281 15.132812 12.382812 15.4375 11.75 15.6875 C 11.113281 15.9375 10.238281 16.0625 9.125 16.0625 C 8.019531 16.0625 7.144531 15.929688 6.5 15.671875 C 5.863281 15.410156 5.378906 15.09375 5.046875 14.71875 C 4.710938 14.351562 4.503906 13.988281 4.421875 13.625 C 4.335938 13.257812 4.296875 12.960938 4.296875 12.734375 Z M 13.921875 -7.0625 C 13.921875 -6.894531 13.992188 -6.597656 14.140625 -6.171875 C 14.285156 -5.753906 14.515625 -5.328125 14.828125 -4.890625 C 15.148438 -4.453125 15.554688 -4.0625 16.046875 -3.71875 C 16.535156 -3.375 17.132812 -3.203125 17.84375 -3.203125 C 18.757812 -3.203125 19.539062 -3.550781 20.1875 -4.25 C 20.84375 -4.945312 21.378906 -5.894531 21.796875 -7.09375 C 22.210938 -8.300781 22.515625 -9.703125 22.703125 -11.296875 C 22.890625 -12.898438 22.984375 -14.613281 22.984375 -16.4375 C 22.984375 -18.675781 22.863281 -20.566406 22.625 -22.109375 C 22.382812 -23.660156 22.035156 -24.910156 21.578125 -25.859375 C 21.117188 -26.804688 20.566406 -27.492188 19.921875 -27.921875 C 19.285156 -28.359375 18.570312 -28.578125 17.78125 -28.578125 C 17.320312 -28.578125 16.863281 -28.441406 16.40625 -28.171875 C 15.945312 -27.910156 15.53125 -27.585938 15.15625 -27.203125 C 14.789062 -26.816406 14.492188 -26.382812 14.265625 -25.90625 C 14.035156 -25.425781 13.921875 -24.96875 13.921875 -24.53125 Z M 13.921875 -7.0625 "/></g></g></g><g fill="#ff0056" fill-opacity="1"><g transform="translate(230.056381, 243.569279)"><g><path d="M 13.921875 -2.828125 C 13.921875 -2.554688 13.875 -2.222656 13.78125 -1.828125 C 13.6875 -1.441406 13.46875 -1.078125 13.125 -0.734375 C 12.78125 -0.390625 12.28125 -0.0976562 11.625 0.140625 C 10.976562 0.378906 10.101562 0.5 9 0.5 C 7.894531 0.5 7.023438 0.367188 6.390625 0.109375 C 5.765625 -0.148438 5.296875 -0.457031 4.984375 -0.8125 C 4.671875 -1.164062 4.476562 -1.53125 4.40625 -1.90625 C 4.332031 -2.289062 4.296875 -2.597656 4.296875 -2.828125 L 4.296875 -27.03125 C 4.296875 -27.644531 4.15625 -28.175781 3.875 -28.625 C 3.59375 -29.070312 3.117188 -29.296875 2.453125 -29.296875 C 2.085938 -29.296875 1.78125 -29.234375 1.53125 -29.109375 C 1.28125 -28.984375 1.007812 -28.804688 0.71875 -28.578125 L 0.0625 -29.359375 C 0.539062 -29.753906 1.078125 -30.144531 1.671875 -30.53125 C 2.273438 -30.914062 2.921875 -31.253906 3.609375 -31.546875 C 4.296875 -31.835938 5.035156 -32.078125 5.828125 -32.265625 C 6.628906 -32.460938 7.46875 -32.5625 8.34375 -32.5625 C 9.695312 -32.5625 10.75 -32.375 11.5 -32 C 12.257812 -31.632812 12.816406 -31.1875 13.171875 -30.65625 C 13.523438 -30.125 13.738281 -29.554688 13.8125 -28.953125 C 13.882812 -28.347656 13.921875 -27.8125 13.921875 -27.34375 Z M 3.328125 -39.703125 C 3.328125 -40.285156 3.457031 -40.84375 3.71875 -41.375 C 3.976562 -41.914062 4.34375 -42.382812 4.8125 -42.78125 C 5.28125 -43.175781 5.820312 -43.488281 6.4375 -43.71875 C 7.0625 -43.945312 7.738281 -44.0625 8.46875 -44.0625 C 9.175781 -44.0625 9.835938 -43.945312 10.453125 -43.71875 C 11.078125 -43.488281 11.617188 -43.175781 12.078125 -42.78125 C 12.535156 -42.382812 12.894531 -41.914062 13.15625 -41.375 C 13.414062 -40.84375 13.546875 -40.285156 13.546875 -39.703125 C 13.546875 -39.097656 13.414062 -38.535156 13.15625 -38.015625 C 12.894531 -37.492188 12.535156 -37.035156 12.078125 -36.640625 C 11.617188 -36.253906 11.078125 -35.945312 10.453125 -35.71875 C 9.835938 -35.488281 9.175781 -35.375 8.46875 -35.375 C 7.738281 -35.375 7.0625 -35.488281 6.4375 -35.71875 C 5.820312 -35.945312 5.28125 -36.253906 4.8125 -36.640625 C 4.34375 -37.035156 3.976562 -37.492188 3.71875 -38.015625 C 3.457031 -38.535156 3.328125 -39.097656 3.328125 -39.703125 Z M 3.328125 -39.703125 "/></g></g></g><g fill="#ff0056" fill-opacity="1"><g transform="translate(246.354574, 243.569279)"><g><path d="M 12.015625 -14.390625 C 12.015625 -13.722656 12.113281 -13 12.3125 -12.21875 C 12.507812 -11.4375 12.796875 -10.644531 13.171875 -9.84375 C 13.546875 -9.050781 14.007812 -8.296875 14.5625 -7.578125 C 15.125 -6.859375 15.765625 -6.210938 16.484375 -5.640625 C 17.203125 -5.078125 18 -4.628906 18.875 -4.296875 C 19.757812 -3.960938 20.722656 -3.796875 21.765625 -3.796875 C 22.492188 -3.796875 23.171875 -3.878906 23.796875 -4.046875 C 24.429688 -4.210938 25.019531 -4.441406 25.5625 -4.734375 C 26.101562 -5.023438 26.625 -5.363281 27.125 -5.75 C 27.632812 -6.132812 28.140625 -6.550781 28.640625 -7 L 29.421875 -6.234375 C 28.941406 -5.585938 28.320312 -4.878906 27.5625 -4.109375 C 26.8125 -3.335938 25.898438 -2.609375 24.828125 -1.921875 C 23.765625 -1.242188 22.519531 -0.679688 21.09375 -0.234375 C 19.675781 0.210938 18.0625 0.4375 16.25 0.4375 C 14.425781 0.4375 12.648438 0.109375 10.921875 -0.546875 C 9.203125 -1.203125 7.671875 -2.1875 6.328125 -3.5 C 4.992188 -4.820312 3.921875 -6.46875 3.109375 -8.4375 C 2.304688 -10.40625 1.90625 -12.707031 1.90625 -15.34375 C 1.90625 -17.238281 2.144531 -18.976562 2.625 -20.5625 C 3.113281 -22.15625 3.769531 -23.585938 4.59375 -24.859375 C 5.414062 -26.140625 6.375 -27.257812 7.46875 -28.21875 C 8.570312 -29.1875 9.726562 -29.988281 10.9375 -30.625 C 12.15625 -31.257812 13.394531 -31.738281 14.65625 -32.0625 C 15.925781 -32.394531 17.144531 -32.5625 18.3125 -32.5625 C 19.863281 -32.5625 21.210938 -32.390625 22.359375 -32.046875 C 23.515625 -31.710938 24.472656 -31.265625 25.234375 -30.703125 C 25.992188 -30.140625 26.5625 -29.484375 26.9375 -28.734375 C 27.3125 -27.992188 27.5 -27.21875 27.5 -26.40625 C 27.5 -25.425781 27.21875 -24.539062 26.65625 -23.75 C 26.09375 -22.96875 25.34375 -22.285156 24.40625 -21.703125 Z M 18.3125 -20.765625 C 18.582031 -20.929688 18.804688 -21.09375 18.984375 -21.25 C 19.160156 -21.40625 19.300781 -21.59375 19.40625 -21.8125 C 19.519531 -22.03125 19.601562 -22.300781 19.65625 -22.625 C 19.707031 -22.945312 19.734375 -23.351562 19.734375 -23.84375 C 19.734375 -24.363281 19.675781 -24.941406 19.5625 -25.578125 C 19.445312 -26.210938 19.25 -26.8125 18.96875 -27.375 C 18.695312 -27.945312 18.351562 -28.421875 17.9375 -28.796875 C 17.519531 -29.171875 17.019531 -29.359375 16.4375 -29.359375 C 15.6875 -29.359375 15.039062 -29.132812 14.5 -28.6875 C 13.96875 -28.238281 13.53125 -27.65625 13.1875 -26.9375 C 12.84375 -26.226562 12.570312 -25.414062 12.375 -24.5 C 12.175781 -23.59375 12.023438 -22.679688 11.921875 -21.765625 C 11.816406 -20.847656 11.753906 -19.960938 11.734375 -19.109375 C 11.710938 -18.265625 11.703125 -17.550781 11.703125 -16.96875 Z M 18.3125 -20.765625 "/></g></g></g><g fill="#ff0056" fill-opacity="1"><g transform="translate(274.473935, 243.569279)"><g><path d="M 13.984375 -30.046875 C 13.503906 -30.046875 13.050781 -29.984375 12.625 -29.859375 C 12.195312 -29.734375 11.816406 -29.53125 11.484375 -29.25 C 11.148438 -28.96875 10.882812 -28.609375 10.6875 -28.171875 C 10.5 -27.742188 10.40625 -27.238281 10.40625 -26.65625 C 10.40625 -25.84375 10.703125 -25.03125 11.296875 -24.21875 C 11.898438 -23.414062 12.644531 -22.582031 13.53125 -21.71875 C 14.414062 -20.851562 15.375 -19.953125 16.40625 -19.015625 C 17.445312 -18.085938 18.410156 -17.101562 19.296875 -16.0625 C 20.191406 -15.03125 20.9375 -13.929688 21.53125 -12.765625 C 22.125 -11.597656 22.421875 -10.34375 22.421875 -9 C 22.421875 -7.5 22.164062 -6.160156 21.65625 -4.984375 C 21.144531 -3.816406 20.410156 -2.820312 19.453125 -2 C 18.503906 -1.1875 17.351562 -0.566406 16 -0.140625 C 14.65625 0.285156 13.160156 0.5 11.515625 0.5 C 10.066406 0.5 8.753906 0.296875 7.578125 -0.109375 C 6.410156 -0.515625 5.375 -1.015625 4.46875 -1.609375 C 3.5625 -2.210938 2.78125 -2.847656 2.125 -3.515625 C 1.476562 -4.179688 0.976562 -4.785156 0.625 -5.328125 L 1.71875 -6.109375 C 1.988281 -5.796875 2.332031 -5.457031 2.75 -5.09375 C 3.175781 -4.726562 3.644531 -4.390625 4.15625 -4.078125 C 4.664062 -3.765625 5.210938 -3.507812 5.796875 -3.3125 C 6.390625 -3.113281 6.988281 -3.015625 7.59375 -3.015625 C 9.09375 -3.015625 10.320312 -3.375 11.28125 -4.09375 C 12.25 -4.8125 12.734375 -5.882812 12.734375 -7.3125 C 12.734375 -8.101562 12.472656 -8.921875 11.953125 -9.765625 C 11.429688 -10.617188 10.769531 -11.492188 9.96875 -12.390625 C 9.175781 -13.285156 8.316406 -14.210938 7.390625 -15.171875 C 6.472656 -16.140625 5.617188 -17.132812 4.828125 -18.15625 C 4.035156 -19.1875 3.375 -20.242188 2.84375 -21.328125 C 2.320312 -22.410156 2.0625 -23.539062 2.0625 -24.71875 C 2.0625 -26.03125 2.328125 -27.175781 2.859375 -28.15625 C 3.398438 -29.144531 4.113281 -29.960938 5 -30.609375 C 5.882812 -31.253906 6.894531 -31.738281 8.03125 -32.0625 C 9.175781 -32.394531 10.359375 -32.5625 11.578125 -32.5625 C 12.972656 -32.5625 14.242188 -32.429688 15.390625 -32.171875 C 16.546875 -31.921875 17.535156 -31.539062 18.359375 -31.03125 C 19.191406 -30.519531 19.832031 -29.878906 20.28125 -29.109375 C 20.726562 -28.335938 20.953125 -27.4375 20.953125 -26.40625 C 20.953125 -25.613281 20.691406 -24.921875 20.171875 -24.328125 C 19.648438 -23.742188 18.914062 -23.453125 17.96875 -23.453125 C 17.070312 -23.453125 16.390625 -23.644531 15.921875 -24.03125 C 15.453125 -24.425781 15.21875 -24.957031 15.21875 -25.625 C 15.21875 -26.0625 15.328125 -26.40625 15.546875 -26.65625 C 15.765625 -26.90625 16.007812 -27.109375 16.28125 -27.265625 C 16.550781 -27.421875 16.796875 -27.554688 17.015625 -27.671875 C 17.234375 -27.796875 17.34375 -27.953125 17.34375 -28.140625 C 17.34375 -28.722656 17.03125 -29.1875 16.40625 -29.53125 C 15.78125 -29.875 14.972656 -30.046875 13.984375 -30.046875 Z M 13.984375 -30.046875 "/></g></g></g><g fill="#ff0056" fill-opacity="1"><g transform="translate(297.205668, 243.569279)"><g/></g></g><g fill="#ff0056" fill-opacity="1"><g transform="translate(122.618515, 307.863408)"><g><path d="M 20.828125 -2.203125 C 21.953125 -2.203125 23.117188 -2.289062 24.328125 -2.46875 C 25.546875 -2.644531 26.65625 -2.953125 27.65625 -3.390625 C 28.664062 -3.828125 29.5 -4.40625 30.15625 -5.125 C 30.8125 -5.84375 31.140625 -6.75 31.140625 -7.84375 C 31.140625 -8.488281 31.019531 -8.96875 30.78125 -9.28125 C 30.539062 -9.59375 30.273438 -9.8125 29.984375 -9.9375 C 29.648438 -10.082031 29.273438 -10.132812 28.859375 -10.09375 C 28.546875 -10.09375 28.257812 -10.054688 28 -9.984375 C 27.75 -9.910156 27.515625 -9.828125 27.296875 -9.734375 C 27.078125 -9.640625 26.867188 -9.554688 26.671875 -9.484375 C 26.472656 -9.410156 26.269531 -9.375 26.0625 -9.375 C 25.832031 -9.375 25.601562 -9.425781 25.375 -9.53125 C 25.144531 -9.632812 24.925781 -9.789062 24.71875 -10 C 24.507812 -10.207031 24.34375 -10.472656 24.21875 -10.796875 C 24.09375 -11.128906 24.03125 -11.515625 24.03125 -11.953125 C 24.03125 -12.785156 24.1875 -13.492188 24.5 -14.078125 C 24.8125 -14.660156 25.207031 -15.140625 25.6875 -15.515625 C 26.164062 -15.898438 26.695312 -16.179688 27.28125 -16.359375 C 27.875 -16.535156 28.441406 -16.625 28.984375 -16.625 C 30.046875 -16.625 30.976562 -16.445312 31.78125 -16.09375 C 32.59375 -15.738281 33.269531 -15.265625 33.8125 -14.671875 C 34.351562 -14.085938 34.757812 -13.414062 35.03125 -12.65625 C 35.300781 -11.894531 35.4375 -11.101562 35.4375 -10.28125 C 35.4375 -8.21875 35 -6.5 34.125 -5.125 C 33.25 -3.757812 32 -2.664062 30.375 -1.84375 C 28.757812 -1.03125 26.800781 -0.457031 24.5 -0.125 C 22.195312 0.207031 19.625 0.375 16.78125 0.375 C 13.394531 0.375 10.644531 0.242188 8.53125 -0.015625 C 6.414062 -0.273438 4.769531 -0.617188 3.59375 -1.046875 C 2.425781 -1.472656 1.640625 -1.957031 1.234375 -2.5 C 0.828125 -3.050781 0.625 -3.609375 0.625 -4.171875 C 0.625 -4.648438 0.695312 -5.148438 0.84375 -5.671875 C 0.988281 -6.203125 1.222656 -6.789062 1.546875 -7.4375 C 1.867188 -8.082031 2.28125 -8.828125 2.78125 -9.671875 C 3.289062 -10.523438 3.898438 -11.515625 4.609375 -12.640625 L 20.296875 -37.703125 C 20.546875 -38.117188 20.804688 -38.539062 21.078125 -38.96875 C 21.347656 -39.394531 21.59375 -39.8125 21.8125 -40.21875 C 22.03125 -40.632812 22.207031 -41.019531 22.34375 -41.375 C 22.476562 -41.726562 22.546875 -42.03125 22.546875 -42.28125 C 22.546875 -42.820312 22.285156 -43.234375 21.765625 -43.515625 C 21.242188 -43.796875 20.625 -43.992188 19.90625 -44.109375 C 19.195312 -44.222656 18.476562 -44.285156 17.75 -44.296875 C 17.019531 -44.304688 16.4375 -44.3125 16 -44.3125 C 14.863281 -44.3125 13.675781 -44.207031 12.4375 -44 C 11.207031 -43.789062 10.078125 -43.453125 9.046875 -42.984375 C 8.015625 -42.515625 7.15625 -41.894531 6.46875 -41.125 C 5.789062 -40.363281 5.453125 -39.421875 5.453125 -38.296875 C 5.453125 -37.671875 5.570312 -37.203125 5.8125 -36.890625 C 6.050781 -36.578125 6.320312 -36.363281 6.625 -36.25 C 6.957031 -36.101562 7.34375 -36.050781 7.78125 -36.09375 C 8.070312 -36.09375 8.335938 -36.128906 8.578125 -36.203125 C 8.816406 -36.273438 9.039062 -36.359375 9.25 -36.453125 C 9.457031 -36.554688 9.660156 -36.644531 9.859375 -36.71875 C 10.054688 -36.789062 10.257812 -36.828125 10.46875 -36.828125 C 10.613281 -36.828125 10.800781 -36.773438 11.03125 -36.671875 C 11.269531 -36.566406 11.492188 -36.40625 11.703125 -36.1875 C 11.910156 -35.976562 12.085938 -35.710938 12.234375 -35.390625 C 12.378906 -35.066406 12.453125 -34.6875 12.453125 -34.25 C 12.453125 -33.4375 12.300781 -32.738281 12 -32.15625 C 11.695312 -31.582031 11.304688 -31.113281 10.828125 -30.75 C 10.359375 -30.382812 9.84375 -30.113281 9.28125 -29.9375 C 8.71875 -29.757812 8.175781 -29.671875 7.65625 -29.671875 C 6.601562 -29.671875 5.679688 -29.859375 4.890625 -30.234375 C 4.097656 -30.609375 3.429688 -31.097656 2.890625 -31.703125 C 2.359375 -32.316406 1.957031 -32.988281 1.6875 -33.71875 C 1.414062 -34.445312 1.28125 -35.175781 1.28125 -35.90625 C 1.28125 -37.375 1.550781 -38.664062 2.09375 -39.78125 C 2.644531 -40.90625 3.382812 -41.863281 4.3125 -42.65625 C 5.238281 -43.445312 6.3125 -44.109375 7.53125 -44.640625 C 8.757812 -45.179688 10.050781 -45.609375 11.40625 -45.921875 C 12.769531 -46.234375 14.148438 -46.453125 15.546875 -46.578125 C 16.953125 -46.703125 18.304688 -46.765625 19.609375 -46.765625 C 22.085938 -46.765625 24.222656 -46.660156 26.015625 -46.453125 C 27.804688 -46.242188 29.273438 -45.953125 30.421875 -45.578125 C 31.578125 -45.203125 32.425781 -44.75 32.96875 -44.21875 C 33.507812 -43.695312 33.78125 -43.113281 33.78125 -42.46875 C 33.78125 -42.03125 33.726562 -41.566406 33.625 -41.078125 C 33.519531 -40.597656 33.335938 -40.046875 33.078125 -39.421875 C 32.816406 -38.796875 32.457031 -38.078125 32 -37.265625 C 31.550781 -36.460938 30.992188 -35.519531 30.328125 -34.4375 L 14.140625 -8.28125 C 13.722656 -7.613281 13.359375 -6.957031 13.046875 -6.3125 C 12.734375 -5.675781 12.578125 -5.085938 12.578125 -4.546875 C 12.578125 -4.085938 12.726562 -3.707031 13.03125 -3.40625 C 13.332031 -3.101562 13.8125 -2.863281 14.46875 -2.6875 C 15.132812 -2.507812 15.988281 -2.382812 17.03125 -2.3125 C 18.070312 -2.238281 19.335938 -2.203125 20.828125 -2.203125 Z M 20.828125 -2.203125 "/></g></g></g><g fill="#ff0056" fill-opacity="1"><g transform="translate(158.388722, 307.863408)"><g><path d="M 1.90625 -16.0625 C 1.90625 -18.800781 2.300781 -21.195312 3.09375 -23.25 C 3.894531 -25.3125 4.957031 -27.03125 6.28125 -28.40625 C 7.613281 -29.789062 9.15625 -30.828125 10.90625 -31.515625 C 12.664062 -32.210938 14.507812 -32.5625 16.4375 -32.5625 C 18.363281 -32.5625 20.203125 -32.238281 21.953125 -31.59375 C 23.710938 -30.957031 25.253906 -29.976562 26.578125 -28.65625 C 27.910156 -27.34375 28.972656 -25.675781 29.765625 -23.65625 C 30.554688 -21.644531 30.953125 -19.257812 30.953125 -16.5 C 30.953125 -13.757812 30.554688 -11.332031 29.765625 -9.21875 C 28.972656 -7.101562 27.910156 -5.320312 26.578125 -3.875 C 25.253906 -2.4375 23.710938 -1.347656 21.953125 -0.609375 C 20.203125 0.128906 18.363281 0.5 16.4375 0.5 C 14.507812 0.5 12.664062 0.148438 10.90625 -0.546875 C 9.15625 -1.242188 7.613281 -2.28125 6.28125 -3.65625 C 4.957031 -5.039062 3.894531 -6.769531 3.09375 -8.84375 C 2.300781 -10.914062 1.90625 -13.320312 1.90625 -16.0625 Z M 21.203125 -16.375 C 21.203125 -18.039062 21.144531 -19.65625 21.03125 -21.21875 C 20.914062 -22.78125 20.691406 -24.164062 20.359375 -25.375 C 20.023438 -26.582031 19.539062 -27.546875 18.90625 -28.265625 C 18.28125 -28.992188 17.457031 -29.359375 16.4375 -29.359375 C 15.40625 -29.359375 14.578125 -28.972656 13.953125 -28.203125 C 13.328125 -27.441406 12.847656 -26.4375 12.515625 -25.1875 C 12.179688 -23.945312 11.960938 -22.53125 11.859375 -20.9375 C 11.753906 -19.351562 11.703125 -17.726562 11.703125 -16.0625 C 11.703125 -14.382812 11.753906 -12.742188 11.859375 -11.140625 C 11.960938 -9.546875 12.179688 -8.117188 12.515625 -6.859375 C 12.847656 -5.609375 13.328125 -4.601562 13.953125 -3.84375 C 14.578125 -3.082031 15.40625 -2.703125 16.4375 -2.703125 C 17.457031 -2.703125 18.28125 -3.097656 18.90625 -3.890625 C 19.539062 -4.679688 20.023438 -5.722656 20.359375 -7.015625 C 20.691406 -8.316406 20.914062 -9.78125 21.03125 -11.40625 C 21.144531 -13.039062 21.203125 -14.695312 21.203125 -16.375 Z M 21.203125 -16.375 "/></g></g></g><g fill="#ff0056" fill-opacity="1"><g transform="translate(189.675037, 307.863408)"><g><path d="M 22.359375 -15.625 C 22.359375 -18.257812 22.238281 -20.363281 22 -21.9375 C 21.757812 -23.519531 21.441406 -24.722656 21.046875 -25.546875 C 20.648438 -26.367188 20.207031 -26.910156 19.71875 -27.171875 C 19.238281 -27.429688 18.75 -27.5625 18.25 -27.5625 C 17.644531 -27.5625 17.109375 -27.398438 16.640625 -27.078125 C 16.171875 -26.753906 15.757812 -26.382812 15.40625 -25.96875 C 15.0625 -25.550781 14.769531 -25.132812 14.53125 -24.71875 C 14.289062 -24.300781 14.085938 -23.988281 13.921875 -23.78125 L 13.921875 -2.828125 C 13.921875 -2.554688 13.878906 -2.222656 13.796875 -1.828125 C 13.710938 -1.441406 13.507812 -1.078125 13.1875 -0.734375 C 12.863281 -0.390625 12.382812 -0.0976562 11.75 0.140625 C 11.113281 0.378906 10.238281 0.5 9.125 0.5 C 8.019531 0.5 7.144531 0.367188 6.5 0.109375 C 5.863281 -0.148438 5.378906 -0.457031 5.046875 -0.8125 C 4.710938 -1.164062 4.503906 -1.53125 4.421875 -1.90625 C 4.335938 -2.289062 4.296875 -2.597656 4.296875 -2.828125 L 4.296875 -27.03125 C 4.296875 -27.644531 4.15625 -28.175781 3.875 -28.625 C 3.59375 -29.070312 3.117188 -29.296875 2.453125 -29.296875 C 2.085938 -29.296875 1.78125 -29.234375 1.53125 -29.109375 C 1.28125 -28.984375 1.007812 -28.804688 0.71875 -28.578125 L 0.0625 -29.359375 C 0.539062 -29.753906 1.078125 -30.144531 1.671875 -30.53125 C 2.273438 -30.914062 2.921875 -31.253906 3.609375 -31.546875 C 4.296875 -31.835938 5.035156 -32.078125 5.828125 -32.265625 C 6.628906 -32.460938 7.46875 -32.5625 8.34375 -32.5625 C 9.695312 -32.5625 10.75 -32.332031 11.5 -31.875 C 12.257812 -31.425781 12.816406 -30.890625 13.171875 -30.265625 C 13.523438 -29.640625 13.738281 -28.984375 13.8125 -28.296875 C 13.882812 -27.617188 13.921875 -27.050781 13.921875 -26.59375 C 14.703125 -27.707031 15.582031 -28.703125 16.5625 -29.578125 C 16.957031 -29.953125 17.398438 -30.316406 17.890625 -30.671875 C 18.378906 -31.023438 18.898438 -31.34375 19.453125 -31.625 C 20.015625 -31.90625 20.601562 -32.128906 21.21875 -32.296875 C 21.832031 -32.472656 22.460938 -32.5625 23.109375 -32.5625 C 24.535156 -32.5625 25.796875 -32.285156 26.890625 -31.734375 C 27.992188 -31.191406 28.921875 -30.28125 29.671875 -29 C 30.421875 -27.726562 30.992188 -26.039062 31.390625 -23.9375 C 31.785156 -21.84375 31.984375 -19.238281 31.984375 -16.125 C 31.984375 -13.09375 31.710938 -10.457031 31.171875 -8.21875 C 30.628906 -5.976562 29.914062 -4.070312 29.03125 -2.5 C 28.15625 -0.9375 27.164062 0.335938 26.0625 1.328125 C 24.957031 2.328125 23.835938 3.109375 22.703125 3.671875 C 21.578125 4.234375 20.492188 4.625 19.453125 4.84375 C 18.421875 5.0625 17.53125 5.179688 16.78125 5.203125 L 16.4375 3.921875 C 17.0625 3.773438 17.640625 3.546875 18.171875 3.234375 C 18.703125 2.921875 19.1875 2.457031 19.625 1.84375 C 20.070312 1.238281 20.460938 0.472656 20.796875 -0.453125 C 21.128906 -1.378906 21.414062 -2.539062 21.65625 -3.9375 C 21.894531 -5.34375 22.070312 -7.003906 22.1875 -8.921875 C 22.300781 -10.835938 22.359375 -13.070312 22.359375 -15.625 Z M 22.359375 -15.625 "/></g></g></g><g fill="#ff0056" fill-opacity="1"><g transform="translate(222.623214, 307.863408)"><g><path d="M 12.015625 -14.390625 C 12.015625 -13.722656 12.113281 -13 12.3125 -12.21875 C 12.507812 -11.4375 12.796875 -10.644531 13.171875 -9.84375 C 13.546875 -9.050781 14.007812 -8.296875 14.5625 -7.578125 C 15.125 -6.859375 15.765625 -6.210938 16.484375 -5.640625 C 17.203125 -5.078125 18 -4.628906 18.875 -4.296875 C 19.757812 -3.960938 20.722656 -3.796875 21.765625 -3.796875 C 22.492188 -3.796875 23.171875 -3.878906 23.796875 -4.046875 C 24.429688 -4.210938 25.019531 -4.441406 25.5625 -4.734375 C 26.101562 -5.023438 26.625 -5.363281 27.125 -5.75 C 27.632812 -6.132812 28.140625 -6.550781 28.640625 -7 L 29.421875 -6.234375 C 28.941406 -5.585938 28.320312 -4.878906 27.5625 -4.109375 C 26.8125 -3.335938 25.898438 -2.609375 24.828125 -1.921875 C 23.765625 -1.242188 22.519531 -0.679688 21.09375 -0.234375 C 19.675781 0.210938 18.0625 0.4375 16.25 0.4375 C 14.425781 0.4375 12.648438 0.109375 10.921875 -0.546875 C 9.203125 -1.203125 7.671875 -2.1875 6.328125 -3.5 C 4.992188 -4.820312 3.921875 -6.46875 3.109375 -8.4375 C 2.304688 -10.40625 1.90625 -12.707031 1.90625 -15.34375 C 1.90625 -17.238281 2.144531 -18.976562 2.625 -20.5625 C 3.113281 -22.15625 3.769531 -23.585938 4.59375 -24.859375 C 5.414062 -26.140625 6.375 -27.257812 7.46875 -28.21875 C 8.570312 -29.1875 9.726562 -29.988281 10.9375 -30.625 C 12.15625 -31.257812 13.394531 -31.738281 14.65625 -32.0625 C 15.925781 -32.394531 17.144531 -32.5625 18.3125 -32.5625 C 19.863281 -32.5625 21.210938 -32.390625 22.359375 -32.046875 C 23.515625 -31.710938 24.472656 -31.265625 25.234375 -30.703125 C 25.992188 -30.140625 26.5625 -29.484375 26.9375 -28.734375 C 27.3125 -27.992188 27.5 -27.21875 27.5 -26.40625 C 27.5 -25.425781 27.21875 -24.539062 26.65625 -23.75 C 26.09375 -22.96875 25.34375 -22.285156 24.40625 -21.703125 Z M 18.3125 -20.765625 C 18.582031 -20.929688 18.804688 -21.09375 18.984375 -21.25 C 19.160156 -21.40625 19.300781 -21.59375 19.40625 -21.8125 C 19.519531 -22.03125 19.601562 -22.300781 19.65625 -22.625 C 19.707031 -22.945312 19.734375 -23.351562 19.734375 -23.84375 C 19.734375 -24.363281 19.675781 -24.941406 19.5625 -25.578125 C 19.445312 -26.210938 19.25 -26.8125 18.96875 -27.375 C 18.695312 -27.945312 18.351562 -28.421875 17.9375 -28.796875 C 17.519531 -29.171875 17.019531 -29.359375 16.4375 -29.359375 C 15.6875 -29.359375 15.039062 -29.132812 14.5 -28.6875 C 13.96875 -28.238281 13.53125 -27.65625 13.1875 -26.9375 C 12.84375 -26.226562 12.570312 -25.414062 12.375 -24.5 C 12.175781 -23.59375 12.023438 -22.679688 11.921875 -21.765625 C 11.816406 -20.847656 11.753906 -19.960938 11.734375 -19.109375 C 11.710938 -18.265625 11.703125 -17.550781 11.703125 -16.96875 Z M 18.3125 -20.765625 "/></g></g></g></svg>